<?xml version="1.0" encoding="utf-8"?>
<!-- Generator: Adobe Illustrator 22.1.0, SVG Export Plug-In . SVG Version: 6.00 Build 0)  -->
<svg version="1.1" id="Ebene_1" xmlns="http://www.w3.org/2000/svg" xmlns:xlink="http://www.w3.org/1999/xlink" x="0px" y="0px"
	 viewBox="0 0 22 22" style="enable-background:new 0 0 22 22;" xml:space="preserve">
<style type="text/css">
	.st0{fill:#00ADEF;}
</style>
<title>icon-669__vk_contacts--default</title>
<path class="st0" d="M17.4,0H4.6C2.1,0,0,2.1,0,4.6v12.8C0,19.9,2.1,22,4.6,22h12.8c2.5,0,4.6-2.1,4.6-4.6V4.6C22,2.1,19.9,0,17.4,0
	z M17.6,15.6h-2c-1.1,0-1.3-0.6-2.2-1.5c-0.8-0.8-1.3-0.2-1.3,1c0,0.3-0.1,0.5-0.4,0.6c0,0-0.1,0-0.1,0c-1.7,0.2-3.4-0.4-4.5-1.7
	c-1.5-1.8-2.7-3.8-3.5-6c0-0.2,0.2-0.3,0.5-0.3h2c0.5,0,0.6,0.3,0.7,0.6c0.6,1.4,2.1,4.2,2.5,2.6c0.2-0.9,0.3-3-0.6-3.2
	C8.1,7.6,9.1,7,10.5,7c0.4,0,0.7,0,1.1,0.1c0.7,0.2,0.7,0.5,0.7,0.9c0,1.7-0.2,2.9,0.2,3.2c0.4,0.3,1.6-1.6,2.2-3
	c0.2-0.4,0.2-0.7,0.7-0.7h2.4c1.3,0-0.2,1.8-1.3,3.3c-0.9,1.2-0.8,1.2,0.2,2.1c0.7,0.7,1.6,1.6,1.6,2.1
	C18.3,15.4,18.1,15.6,17.6,15.6z"/>
</svg>
